#!OML:ASF F:\VICON\USERDATA\INSTALL\SteveWalk\SteveWalk.ASF
:FULLY-SPECIFIED
:DEGREES
154
root -0.541467 16.2951 -13.0878 18.2731 -3.63466 0.463269
lowerback -14.673 1.4162 1.04642
upperback -5.04588 1.67509 1.05687
thorax 2.88758 0.831498 0.796103
lowerneck -4.30944 0.908544 0.589544
upperneck 7.67992 1.52382 -4.29953
head 3.27838 0.610853 -1.44677
rclavicle 9.26834e-015 -9.54166e-015
rhumerus -13.3664 6.74803 -86.7244
rradius 37.8865
rwrist -12.6288
rhand -15.2615 -35.3207
rfingers 7.12502
rthumb 10.9125 -65.0172
lclavicle 9.26834e-015 -9.54166e-015
lhumerus -58.5115 31.2887 54.5473
lradius 11.869
lwrist -40.0839
lhand -15.8968 -17.7844
lfingers 7.12502
lthumb 10.2997 11.9434
rfemur -15.3066 -8.55818 22.961
rtibia 28.351
rfoot -30.1206 9.88498
rtoes -5.60143
lfemur -49.3426 5.80661 -24.0146
ltibia 30.9238
lfoot -8.90661 7.28318
ltoes -10.6216
155
root -0.535024 16.2743 -12.8741 18.4514 -4.0238 0.284685
lowerback -14.7763 1.55989 1.08108
upperback -5.0689 1.85772 1.05069
thorax 2.91893 0.921747 0.803507
lowerneck -4.2891 0.880593 0.533674
upperneck 7.6148 1.48425 -4.25588
head 3.24946 0.592285 -1.42337
rclavicle -5.36719e-015 -1.59028e-015
rhumerus -12.167 7.75275 -86.4948
rradius 38.7407
rwrist -13.0811
rhand -15.5994 -35.664
rfingers 7.12502
rthumb 10.5866 -65.3773
lclavicle -5.36719e-015 -1.59028e-015
lhumerus -61.2059 32.8503 50.619
lradius 11.4709
lwrist -42.8475
lhand -15.7288 -17.5576
lfingers 7.12502
lthumb 10.4618 12.1621
rfemur -14.2359 -8.71425 22.8838
rtibia 27.4036
rfoot -30.157 10.1286
rtoes -7.09938
lfemur -49.4169 5.7423 -23.5978
ltibia 27.6094
lfoot -8.55151 7.2586
ltoes -9.29277
156
root -0.523289 16.2524 -12.659 18.6278 -4.33833 0.0667628
lowerback -14.9408 1.66501 1.18464
upperback -5.03088 1.97536 1.08933
thorax 3.04826 0.979642 0.81152
lowerneck -4.40518 0.894092 0.424668
upperneck 7.56988 1.50562 -4.20535
head 3.25461 0.600845 -1.38614
rclavicle 4.33102e-014 8.74653e-015
rhumerus -11.0114 8.88076 -86.1751
rradius 39.6754
rwrist -13.5061
rhand -15.9746 -34.9535
rfingers 7.12502
rthumb 10.2247 -64.685
lclavicle 4.33102e-014 8.74653e-015
lhumerus -64.2193 34.4603 46.2129
lradius 11.0453
lwrist -45.7721
lhand -15.9062 -17.8629
lfingers 7.12502
lthumb 10.2906 11.8653
rfemur -13.1188 -8.94867 22.7993
rtibia 26.4578
rfoot -30.1568 10.6996
rtoes -8.1032
lfemur -49.4572 5.63266 -23.0882
ltibia 24.3854
lfoot -8.40038 7.00609
ltoes -7.51296
157
root -0.513447 16.2219 -12.4434 18.749 -4.90886 -0.185667
lowerback -14.9018 1.84525 1.20635
upperback -5.04123 2.20843 1.13544
thorax 3.01431 1.09527 0.88616
lowerneck -4.62025 0.922735 0.423026
upperneck 7.67938 1.55143 -4.22088
head 3.33523 0.619013 -1.3903
rclavicle -2.97804e-014 -6.36111e-015
rhumerus -9.91483 9.82317 -85.8246
rradius 40.3851
rwrist -13.856
rhand -16.6289 -33.6814
rfingers 7.12502
rthumb 9.59338 -63.443
lclavicle -2.97804e-014 -6.36111e-015
lhumerus -66.6173 34.9844 43.2744
lradius 10.8821
lwrist -47.1522
lhand -16.2796 -18.1304
lfingers 7.12502
lthumb 9.93037 11.6154
rfemur -11.886 -8.58757 22.6341
rtibia 25.4796
rfoot -30.0058 11.2532
rtoes -8.19525
lfemur -49.4461 5.61894 -22.4166
ltibia 21.3912
lfoot -8.63778 6.67174
ltoes -4.79531
158
root -0.506218 16.1923 -12.2236 18.9142 -5.4057 -0.525242
lowerback -15.029 2.0579 1.34637
upperback -5.03735 2.46402 1.15628
thorax 3.08967 1.22132 0.878179
lowerneck -4.57981 0.92623 0.370056
upperneck 7.54197 1.54513 -4.10331
head 3.2772 0.621095 -1.34096
rclavicle 8.74653e-015 1.47101e-014
rhumerus -8.78071 10.3353 -85.4988
rradius 41.0291
rwrist -14.0658
rhand -17.1509 -33.6859
rfingers 7.12502
rthumb 9.08977 -63.4701
lclavicle 8.74653e-015 1.47101e-014
lhumerus -68.4321 35.0387 41.1356
lradius 10.7743
lwrist -47.8329
lhand -16.4117 -18.2922
lfingers 7.12502
lthumb 9.80295 11.4596
rfemur -10.65 -8.13966 22.582
rtibia 24.4942
rfoot -29.7777 11.5173
rtoes -9.08412
lfemur -49.487 5.96394 -21.9739
ltibia 18.6697
lfoot -9.11813 5.87327
ltoes -1.70356
159
root -0.492878 16.1725 -11.995 19.024 -5.60035 -0.7035
lowerback -15.3074 2.15247 1.4767
upperback -4.96331 2.56217 1.1227
thorax 3.3231 1.26912 0.799921
lowerneck -4.46826 0.907037 0.315419
upperneck 7.28088 1.5021 -3.96667
head 3.162 0.607897 -1.28574
rclavicle -4.33599e-015 1.19271e-014
rhumerus -7.65483 10.7938 -85.1881
rradius 41.7891
rwrist -14.3087
rhand -17.1863 -34.0773
rfingers 7.12502
rthumb 9.05556 -63.8629
lclavicle -4.33599e-015 1.19271e-014
lhumerus -70.4603 35.366 38.3991
lradius 10.5855
lwrist -48.8736
lhand -16.3328 -17.7805
lfingers 7.12502
lthumb 9.87907 11.9678
rfemur -9.35357 -8.05469 22.3915
rtibia 23.5259
rfoot -29.409 12.0904
rtoes -9.39451
lfemur -49.6059 6.63711 -22.2993
ltibia 16.3093
lfoot -9.37411 4.41291
ltoes -1.49114
160
root -0.478208 16.1563 -11.7663 18.9296 -5.7974 -0.582328
lowerback -15.1271 2.16771 1.2946
upperback -5.02251 2.61829 1.03483
thorax 3.16071 1.29709 0.811466
lowerneck -4.40844 0.922983 0.344048
upperneck 7.23253 1.518 -3.9526
head 3.13454 0.618356 -1.28509
rclavicle -1.47101e-014 5.56597e-015
rhumerus -6.98432 11.2465 -84.9285
rradius 42.4787
rwrist -14.3628
rhand -17.059 -32.7759
rfingers 7.12502
rthumb 9.17844 -62.5562
lclavicle -1.47101e-014 5.56597e-015
lhumerus -71.8929 34.9234 37.0757
lradius 10.6136
lwrist -48.401
lhand -16.0582 -16.9296
lfingers 7.12502
lthumb 10.144 12.8059
rfemur -7.85435 -7.65309 21.875
rtibia 22.51
rfoot -28.8283 12.5079
rtoes -8.81039
lfemur -49.7511 7.42107 -23.1492
ltibia 14.4854
lfoot -9.42385 2.64462
ltoes -2.8405
161
root -0.467402 16.1338 -11.5372 18.9086 -5.88057 -0.696436
lowerback -14.9328 2.17968 1.3101
upperback -5.1395 2.63828 1.02824
thorax 2.93463 1.30693 0.788353
lowerneck -4.47013 0.961145 0.341403
upperneck 7.31392 1.56886 -3.90208
head 3.17467 0.643673 -1.26653
rclavicle -4.80313e-014 -1.70955e-014
rhumerus -6.48424 11.6649 -84.7026
rradius 43.0929
rwrist -14.1689
rhand -17.1666 -31.5171
rfingers 7.12502
rthumb 9.07459 -61.3018
lclavicle -4.80313e-014 -1.70955e-014
lhumerus -72.7887 34.1227 36.7605
lradius 10.7292
lwrist -47.0861
lhand -15.7521 -16.5092
lfingers 7.12502
lthumb 10.4393 13.2116
rfemur -6.4158 -7.25217 21.7012
rtibia 21.5082
rfoot -28.225 12.522
rtoes -9.37361
lfemur -50.1766 8.55125 -24.0955
ltibia 13.1023
lfoot -9.88915 0.222013
ltoes -2.59319
162
root -0.451726 16.1069 -11.3013 19.1085 -5.84949 -1.04265
lowerback -15.2246 2.2444 1.63497
upperback -5.14564 2.66848 1.02914
thorax 3.09809 1.32009 0.62376
lowerneck -4.70498 0.938354 0.348153
upperneck 7.48556 1.53296 -3.74438
head 3.27543 0.627397 -1.21861
rclavicle -1.86485e-014 -3.97569e-016
rhumerus -5.83571 12.1111 -84.411
rradius 43.8811
rwrist -14.0966
rhand -17.4892 -31.8454
rfingers 7.12502
rthumb 8.76325 -61.6434
lclavicle -1.86485e-014 -3.97569e-016
lhumerus -74.5609 34.1641 34.3407
lradius 10.626
lwrist -47.9694
lhand -15.6586 -16.7183
lfingers 7.12502
lthumb 10.5295 12.9979
rfemur -5.302 -7.38803 21.7528
rtibia 20.7115
rfoot -27.6285 13.1966
rtoes -9.28831
lfemur -50.6601 9.6246 -24.9006
ltibia 11.9271
lfoot -10.8935 -2.34813
ltoes -0.0231087
163
root -0.432898 16.0765 -11.0667 19.2545 -5.74523 -1.24547
lowerback -15.3709 2.28946 1.85998
upperback -5.17183 2.69345 0.966924
thorax 3.16152 1.33111 0.441962
lowerneck -4.96345 0.896965 0.329125
upperneck 7.7034 1.46686 -3.48777
head 3.39485 0.598945 -1.13504
rclavicle 5.479e-015 4.77083e-015
rhumerus -5.44476 12.425 -84.0781
rradius 44.9266
rwrist -14.1981
rhand -17.659 -32.8233
rfingers 7.12502
rthumb 8.59941 -62.6282
lclavicle 5.479e-015 4.77083e-015
lhumerus -76.9718 34.4811 30.56
lradius 10.4785
lwrist -50.1908
lhand -15.5421 -17.032
lfingers 7.12502
lthumb 10.6419 12.6785
rfemur -4.28657 -7.53957 21.6244
rtibia 20.2419
rfoot -27.1674 13.8731
rtoes -10.3873
lfemur -50.8242 9.25233 -24.5009
ltibia 10.93
lfoot -11.1034 -3.18781
ltoes 2.10067
164
root -0.427989 16.0458 -10.8359 19.3257 -5.76074 -1.27698
lowerback -15.1973 2.30652 1.64471
upperback -5.30514 2.75752 0.910551
thorax 2.92216 1.36311 0.504544
lowerneck -5.24903 0.832597 0.217907
upperneck 7.94605 1.37178 -3.16423
head 3.52666 0.556286 -1.01438
rclavicle -1.82509e-014 5.56597e-015
rhumerus -5.31656 12.4853 -83.7823
rradius 45.9115
rwrist -14.2152
rhand -17.664 -33.5096
rfingers 7.12502
rthumb 8.5946 -63.3146
lclavicle -1.82509e-014 5.56597e-015
lhumerus -78.2511 34.1589 28.8462
lradius 10.4778
lwrist -50.5447
lhand -15.4156 -16.8502
lfingers 7.12502
lthumb 10.7639 12.854
rfemur -3.45419 -6.94719 21.4356
rtibia 20.1338
rfoot -26.7785 13.5132
rtoes -14.8099
lfemur -50.7949 9.00332 -24.2403
ltibia 10.082
lfoot -10.9264 -3.89366
ltoes 1.41838
165
root -0.437789 16.0169 -10.6021 19.502 -6.30581 -1.17191
lowerback -15.2896 2.44076 0.931417
upperback -5.41213 3.04127 0.821358
thorax 2.82908 1.50774 0.862387
lowerneck -5.46352 0.767179 0.192585
upperneck 8.07334 1.26903 -2.90902
head 3.60732 0.512171 -0.9311
rclavicle -5.05658e-015 1.59028e-015
rhumerus -5.19145 12.408 -83.4966
rradius 46.7606
rwrist -14.2537
rhand -17.9432 -32.9966
rfingers 7.12502
rthumb 8.32511 -62.8125
lclavicle -5.05658e-015 1.59028e-015
lhumerus -79.1105 33.7492 27.6374
lradius 10.4179
lwrist -50.6277
lhand -15.343 -17.2703
lfingers 7.12502
lthumb 10.8339 12.4303
rfemur -3.01841 -5.62232 21.0506
rtibia 20.3835
rfoot -26.1744 13.1014
rtoes -17.8495
lfemur -50.6034 8.76977 -23.7019
ltibia 9.37286
lfoot -11.0844 -3.56022
ltoes 0.399639
166
root -0.441303 15.9833 -10.3642 19.6373 -6.74885 -0.992663
lowerback -15.4911 2.5283 0.258239
upperback -5.42903 3.25752 0.703188
thorax 2.88724 1.61837 1.16351
lowerneck -5.72886 0.709156 0.179239
upperneck 8.15151 1.17453 -2.66614
head 3.6819 0.472551 -0.853376
rclavicle 3.34517e-014 2.26615e-014
rhumerus -5.14798 12.247 -83.2329
rradius 47.689
rwrist -14.2794
rhand -18.2984 -32.0202
rfingers 7.12502
rthumb 7.98238 -61.8494
lclavicle 3.34517e-014 2.26615e-014
lhumerus -80.2644 33.533 25.773
lradius 10.3023
lwrist -51.5333
lhand -15.1508 -17.7445
lfingers 7.12502
lthumb 11.0193 11.9463
rfemur -2.56569 -4.61188 20.492
rtibia 20.8876
rfoot -25.4325 13.5573
rtoes -17.9453
lfemur -50.304 8.3647 -23.2375
ltibia 8.9854
lfoot -10.512 -2.86123
ltoes -4.2552
167
root -0.433691 15.9435 -10.1188 19.5151 -6.56167 -0.784873
lowerback -15.5041 2.40714 -0.162916
upperback -5.36127 3.16427 0.614191
thorax 2.94958 1.57365 1.29332
lowerneck -6.01265 0.578391 0.0582914
upperneck 8.24959 0.988826 -2.38255
head 3.76514 0.386319 -0.747852
rclavicle -3.21845e-014 -2.22639e-014
rhumerus -5.19748 11.9781 -83.0653
rradius 48.6501
rwrist -14.2324
rhand -18.3114 -31.9432
rfingers 7.12502
rthumb 7.9698 -61.773
lclavicle -3.21845e-014 -2.22639e-014
lhumerus -81.7283 33.5126 23.3896
lradius 10.1845
lwrist -53.027
lhand -15.1502 -17.7665
lfingers 7.12502
lthumb 11.0199 11.9242
rfemur -1.80692 -4.31252 20.0308
rtibia 21.4079
rfoot -24.5059 14.309
rtoes -17.2936
lfemur -50.0858 7.27639 -22.6267
ltibia 9.61164
lfoot -9.18656 -2.21996
ltoes -11.7271
168
root -0.424794 15.9082 -9.86047 19.2718 -6.0276 -0.592186
lowerback -15.5554 2.2329 -0.495459
upperback -5.26966 2.98915 0.516296
thorax 3.06557 1.4869 1.35218
lowerneck -6.01742 0.424874 0.129227
upperneck 8.12233 0.758688 -2.22328
head 3.71697 0.282638 -0.718716
rclavicle 6.85807e-015 1.19271e-014
rhumerus -5.48375 11.5616 -82.9277
rradius 49.6163
rwrist -14.3372
rhand -18.0605 -31.937
rfingers 7.12502
rthumb 8.21193 -61.7574
lclavicle 6.85807e-015 1.19271e-014
lhumerus -83.3707 33.6121 20.3503
lradius 10.0257
lwrist -55.246
lhand -15.0534 -17.7446
lfingers 7.12502
lthumb 11.1133 11.9412
rfemur -0.829016 -4.20594 19.7637
rtibia 21.7354
rfoot -23.607 14.4452
rtoes -17.7739
lfemur -50.0612 5.86041 -21.8854
ltibia 11.5135
lfoot -8.5996 -1.42532
ltoes -14.1157
